<mxfile host="app.diagrams.net" modified="2024-02-25T12:24:11.889Z" agent="Mozilla/5.0 (Windows NT 10.0; Win64; x64) AppleWebKit/537.36 (KHTML, like Gecko) Chrome/122.0.0.0 Safari/537.36" version="21.7.1" etag="dmaQhQqMcO9-S8i2EGfR" type="github">
  <diagram name="Page-1" id="NQd8Ju5ay9blmP7HOVNA">
    <mxGraphModel>
      <root>
        <mxCell id="0" />
        <mxCell id="1" parent="0" />
      </root>
    </mxGraphModel>
  </diagram>
</mxfile>
